HIERARCHY
ROOT Hips
{
	OFFSET 0 0 0
	CHANNELS 6 Xposition Yposition Zposition Yrotation Xrotation Zrotation
	JOINT Spine
	{
		OFFSET -0 8.65952 -2.76022
		CHANNELS 3 Yrotation Xrotation Zrotation
		JOINT Spine1
		{
			OFFSET -0 10.0202 0
			CHANNELS 3 Yrotation Xrotation Zrotation
			JOINT Spine2
			{
				OFFSET -0 10.0202 0
				CHANNELS 3 Yrotation Xrotation Zrotation
				JOINT Spine3
				{
					OFFSET -0 10.0202 0
					CHANNELS 3 Yrotation Xrotation Zrotation
					JOINT Neck
					{
						OFFSET -0 15.4767 3.76022
						CHANNELS 3 Yrotation Xrotation Zrotation
						JOINT Head
						{
							OFFSET -0 10.8244 0
							CHANNELS 3 Yrotation Xrotation Zrotation
							End Site
							{
								OFFSET -0 15 0
							}
						}
					}
					JOINT LeftShoulder
					{
						OFFSET 1.80407 4.18001 3.60813
						CHANNELS 3 Yrotation Xrotation Zrotation
						JOINT LeftArm
						{
							OFFSET 16.4139 0 0
							CHANNELS 3 Yrotation Xrotation Zrotation
							JOINT LeftForeArm
							{
								OFFSET 25.1761 0 0
								CHANNELS 3 Yrotation Xrotation Zrotation
								JOINT LeftHand
								{
									OFFSET 25.1703 0 0
									CHANNELS 3 Yrotation Xrotation Zrotation
									End Site
									{
										OFFSET 15 0 0
									}
								}
							}
						}
					}
					JOINT RightShoulder
					{
						OFFSET -1.80407 4.18001 3.60813
						CHANNELS 3 Yrotation Xrotation Zrotation
						JOINT RightArm
						{
							OFFSET -16.4139 0 0
							CHANNELS 3 Yrotation Xrotation Zrotation
							JOINT RightForeArm
							{
								OFFSET -25.1761 0 0
								CHANNELS 3 Yrotation Xrotation Zrotation
								JOINT RightHand
								{
									OFFSET -25.1703 0 0
									CHANNELS 3 Yrotation Xrotation Zrotation
									End Site
									{
										OFFSET -15 0 0
									}
								}
							}
						}
					}
				}
			}
		}
	}
	JOINT LeftUpLeg
	{
		OFFSET 10.8244 -3.60813 2
		CHANNELS 3 Yrotation Xrotation Zrotation
		JOINT LeftLeg
		{
			OFFSET -0 -40.8394 2.52569
			CHANNELS 3 Yrotation Xrotation Zrotation
			JOINT LeftFoot
			{
				OFFSET -0 -43.1743 -2.52569
				CHANNELS 3 Yrotation Xrotation Zrotation
				JOINT LeftToeBase
				{
					OFFSET -0 -6.9655 16.2366
					CHANNELS 3 Yrotation Xrotation Zrotation
					End Site
					{
						OFFSET -0 0 5
					}
				}
			}
		}
	}
	JOINT RightUpLeg
	{
		OFFSET -10.8244 -3.60813 2
		CHANNELS 3 Yrotation Xrotation Zrotation
		JOINT RightLeg
		{
			OFFSET -0 -40.8394 2.52569
			CHANNELS 3 Yrotation Xrotation Zrotation
			JOINT RightFoot
			{
				OFFSET -0 -43.1743 -2.52569
				CHANNELS 3 Yrotation Xrotation Zrotation
				JOINT RightToeBase
				{
					OFFSET -0 -6.9655 16.2366
					CHANNELS 3 Yrotation Xrotation Zrotation
					End Site
					{
						OFFSET -0 0 5
					}
				}
			}
		}
	}
}
MOTION
Frames: 17
Frame Time: 0.00833333
-30.981693 92.959283 -72.081494 -1.766224 5.821108 -2.458224 8.714051 2.045633 0.184304 7.402740 2.912294 -0.111010 3.875976 3.134612 -0.383899 2.476352 3.381685 -0.125030 -13.594683 9.056825 2.944355 -5.704973 3.771949 3.390341 9.908439 2.943131 8.011084 -82.625690 -5.593976 -14.575152 -80.900779 9.877566 47.299177 -15.219293 -13.514186 -8.072408 -2.438426 2.543387 -14.689619 59.427046 -5.236839 -4.794843 34.685175 -9.552890 -32.707043 -1.456580 2.397682 11.341943 -3.648905 -28.707962 9.126394 0.000000 27.177415 0.000000 -0.093354 0.348390 -1.706764 0.000000 -4.245228 0.000000 -28.998744 -0.709901 -1.746534 0.000000 16.968025 0.000000 -9.728362 -14.481828 7.554728 0.000000 -3.361262 0.000000
-30.794162 92.990472 -72.123657 -3.450512 5.649649 -2.480533 8.358750 2.085433 -0.033433 7.083384 2.887591 -0.196291 3.652844 3.036490 -0.320792 2.231982 3.314184 -0.200953 -11.784449 9.690568 2.697296 -4.925914 3.360771 3.136151 10.440270 3.338667 8.212580 -80.757513 -5.540238 -15.109184 -81.658741 9.952268 47.355366 -14.894477 -13.149585 -8.399766 -4.173102 3.256405 -14.095168 62.539527 -4.958074 -2.643128 39.054980 -7.152606 -38.816291 -1.700773 1.415474 11.775452 -2.624502 -28.361310 9.043492 0.000000 27.270102 0.000000 0.611199 0.096742 -1.795350 0.000000 -4.241143 0.000000 -28.000346 -1.153894 -1.972294 0.000000 17.301098 0.000000 -9.026300 -14.390959 7.389366 0.000000 -3.390681 0.000000
-30.621661 93.026782 -72.158698 -5.046310 5.564706 -2.498575 7.899082 2.037187 -0.303835 6.669438 2.847726 -0.281474 3.438989 2.992438 -0.216102 2.006188 3.171896 -0.357974 -9.928549 10.398888 2.561518 -4.136844 2.949334 2.868538 11.010471 3.665962 8.404091 -78.767465 -5.305998 -15.699582 -82.518782 10.024164 47.431541 -14.527768 -12.577438 -8.751112 -5.852697 4.372812 -13.118854 65.592499 -4.348465 -0.900762 42.738388 -4.085955 -44.555033 -1.926009 0.081374 11.624264 -1.759466 -28.083255 9.002720 0.000000 27.333732 0.000000 1.352870 -0.124358 -1.943982 0.000000 -4.217139 0.000000 -27.185737 -1.631269 -2.162921 0.000000 17.578465 0.000000 -8.227224 -14.277086 7.212949 0.000000 -3.445522 0.000000
-30.460724 93.060419 -72.179376 -6.604820 5.453971 -2.510123 7.431703 2.009139 -0.576036 6.229390 2.823466 -0.371202 3.179589 2.823250 -0.189620 1.794714 3.110101 -0.404924 -8.077980 11.174911 2.378185 -3.342672 2.529838 2.640810 11.573973 4.278802 8.620725 -76.705425 -5.298229 -16.128088 -83.284807 10.157564 47.440458 -14.140936 -12.214498 -9.161242 -7.298777 5.666411 -12.071558 68.357389 -3.558697 0.890467 45.930225 -0.657044 -50.137297 -1.771554 -1.222455 11.784465 -0.824810 -27.789424 8.942432 0.000000 27.398455 0.000000 1.990660 -0.331434 -2.104162 0.000000 -4.230394 0.000000 -26.451347 -2.058677 -2.368276 0.000000 17.829868 0.000000 -7.395699 -14.178574 7.003817 0.000000 -3.486471 0.000000
-30.318137 93.086053 -72.210950 -8.208600 5.266071 -2.501473 6.984532 1.989289 -0.919604 5.776451 2.844415 -0.550351 2.907115 2.623295 -0.296274 1.770357 3.097091 0.049278 -6.394421 12.068174 2.153444 -2.637309 1.981953 2.255365 12.014475 4.883860 8.728354 -74.874522 -5.141716 -16.568161 -83.904363 10.224188 47.486772 -13.533018 -11.385617 -8.752519 -8.898015 7.260849 -10.905625 69.777031 -6.039679 1.173419 56.176988 -0.065142 -50.098001 -2.515802 5.144034 9.959566 0.164933 -27.413742 8.875841 0.000000 27.456525 0.000000 2.618233 -0.538418 -2.273735 0.000000 -4.264018 0.000000 -25.665131 -2.462092 -2.608562 0.000000 18.139747 0.000000 -6.554744 -14.108799 6.797914 0.000000 -3.554155 0.000000
-30.157288 93.095679 -72.251300 -9.754134 5.166539 -2.523797 6.517403 2.087388 -1.216694 5.261077 2.693559 -0.762013 2.682771 2.446462 -0.473947 1.796028 2.708038 0.600953 -4.750064 13.348440 1.921542 -1.948582 1.325483 1.868298 12.530731 5.740316 8.876295 -73.274183 -5.183585 -17.117796 -84.414778 10.253327 47.546566 -13.184215 -10.884828 -8.822230 -10.258474 8.957911 -9.983827 70.769577 -7.761247 2.424817 64.180067 2.013836 -50.253120 -2.826576 8.694411 8.783553 1.050138 -27.213212 8.867459 0.000000 27.652933 0.000000 3.272366 -0.847240 -2.686452 0.000000 -4.025185 0.000000 -24.951505 -2.954075 -2.786524 0.000000 18.489054 0.000000 -5.711284 -14.057284 6.618886 0.000000 -3.600704 0.000000
-29.984024 93.113806 -72.247656 -11.358349 5.119938 -2.440550 6.036858 1.669538 -1.597241 4.848718 2.709537 -0.839257 2.696360 2.927894 -0.261282 1.919689 4.193286 0.963668 -3.413854 11.090028 1.337142 -1.376132 1.989624 1.601819 12.832574 4.496023 8.449003 -71.609391 -5.280510 -17.626980 -85.156606 10.410043 47.529461 -12.604546 -10.930346 -8.272780 -12.560392 8.503404 -9.312750 72.391467 -9.006234 3.679046 71.108355 3.872466 -50.278091 -2.843952 10.940785 8.058579 2.128006 -26.972088 8.682648 0.000000 27.721303 0.000000 3.870118 -1.056616 -2.861559 0.000000 -4.075740 0.000000 -24.221097 -3.545820 -3.067338 0.000000 18.854226 0.000000 -4.811485 -14.019544 6.466389 0.000000 -3.657296 0.000000
-29.824603 93.119904 -72.282202 -12.893843 5.040068 -2.424453 5.553868 1.443154 -1.913254 4.401793 2.803427 -0.919294 2.492617 3.250988 -0.044022 1.798105 3.987893 0.898856 -1.672415 11.400444 1.053303 -0.644617 1.712237 1.237145 13.338132 4.808443 8.498358 -69.743778 -5.319261 -18.121967 -85.845575 10.499098 47.568106 -12.210919 -10.661561 -8.295838 -14.037562 9.626582 -8.393342 73.590799 -9.632242 5.204492 76.949196 5.734282 -50.003921 -2.612743 11.488013 7.622208 3.132232 -26.768325 8.594570 0.000000 27.845065 0.000000 4.424304 -1.254164 -3.027758 0.000000 -4.104589 0.000000 -23.570413 -4.070403 -3.273949 0.000000 19.196707 0.000000 -3.876274 -13.978220 6.272626 0.000000 -3.748345 0.000000
-29.658490 93.100720 -72.313965 -14.452202 4.905096 -2.444590 5.101928 1.398008 -2.137844 3.959003 2.926874 -0.935276 2.238779 3.272269 0.117044 1.640551 3.908456 0.823948 0.099749 11.702366 0.573586 0.116411 1.472530 0.919643 13.862237 5.205957 8.484102 -67.729995 -5.366169 -18.570220 -86.590106 10.583366 47.621015 -11.988981 -10.164483 -8.395562 -15.389505 10.656595 -7.650138 74.637756 -9.841609 6.852494 81.977394 7.458464 -49.574432 -2.648161 10.854154 7.441685 4.184564 -26.576777 8.538690 0.000000 28.091226 0.000000 4.950565 -1.529414 -3.136531 0.000000 -4.093761 0.000000 -22.806616 -4.568017 -3.462119 0.000000 19.614006 0.000000 -3.020604 -13.970673 6.111814 0.000000 -3.858918 0.000000
-29.508200 93.076843 -72.349207 -16.047359 4.764599 -2.469580 4.686168 1.343984 -2.319721 3.529567 2.961531 -0.956793 2.001459 3.403341 0.290634 1.454920 3.895240 0.668119 2.016275 11.943212 0.237764 0.910909 1.197668 0.428386 14.316189 5.616495 8.507265 -65.570526 -5.464525 -18.985590 -87.384533 10.743555 47.612298 -11.663527 -9.766401 -8.356758 -16.642700 11.622361 -6.931947 75.628142 -9.913186 8.374869 85.906619 9.024856 -48.953939 -2.487575 9.851264 7.485789 5.260405 -26.385796 8.502932 0.000000 28.353368 0.000000 5.482079 -1.814925 -3.236608 0.000000 -4.074420 0.000000 -22.007749 -5.065580 -3.634447 0.000000 20.037268 0.000000 -2.169052 -13.963895 5.947854 0.000000 -3.887036 0.000000
-29.363672 93.037323 -72.399115 -17.648808 4.582707 -2.551714 4.286082 1.388318 -2.387913 3.119115 3.007478 -0.918329 1.763600 3.441875 0.340762 1.243920 3.907761 0.549974 3.885849 12.130370 -0.138644 1.674244 1.055132 -0.174309 14.736760 5.785141 8.574214 -63.373761 -5.511858 -19.733168 -88.238520 10.891220 47.627356 -11.271252 -9.170982 -8.368591 -17.682840 12.332261 -6.310320 76.339868 -9.818317 10.063781 89.347862 10.432680 -48.290908 -2.217584 9.371743 7.804343 6.340926 -26.230267 8.549086 0.000000 28.720070 0.000000 5.981714 -2.122876 -3.364547 0.000000 -4.070097 0.000000 -21.125756 -5.505937 -3.746572 0.000000 20.466864 0.000000 -1.396089 -13.963192 5.799646 0.000000 -3.907716 0.000000
-29.215759 92.985980 -72.456042 -19.267376 4.409593 -2.646960 3.914403 1.552845 -2.428045 2.714423 2.946716 -0.890886 1.494123 3.340864 0.433071 0.994009 3.933531 0.450541 5.790045 12.492090 -0.612129 2.466220 0.834451 -0.706037 15.185816 5.966405 8.601578 -61.177370 -5.464762 -20.558110 -88.981790 11.001609 47.657744 -11.039948 -8.712291 -8.409440 -18.536435 12.977301 -5.825922 76.948291 -9.893412 11.576298 91.687038 11.615698 -47.553039 -1.551541 9.474617 8.477787 7.482955 -26.120438 8.606178 0.000000 29.124488 0.000000 6.427502 -2.458513 -3.455810 0.000000 -4.075927 0.000000 -20.244802 -5.981432 -3.837274 0.000000 20.935057 0.000000 -0.592138 -13.977793 5.655758 0.000000 -3.908444 0.000000
-29.086615 92.914966 -72.474261 -20.918850 4.164886 -2.757362 3.570391 1.585505 -2.330660 2.328108 3.130450 -0.830499 1.231654 3.572274 0.572428 0.658120 3.518124 -0.068545 7.771027 12.693277 -0.892874 3.284970 0.878280 -1.197946 15.509446 6.808395 8.764230 -58.415092 -5.805067 -20.861957 -89.996342 11.354595 47.496765 -10.639075 -8.450706 -8.481333 -19.167713 13.298573 -5.590957 77.379661 -10.339475 13.586756 93.412767 12.930123 -46.495409 -1.486125 9.710308 8.338494 8.680565 -25.954491 8.706796 0.000000 29.606912 0.000000 6.840219 -2.884829 -3.581310 0.000000 -4.065138 0.000000 -19.394322 -6.366701 -3.945604 0.000000 21.403044 0.000000 0.280715 -14.027946 5.514734 0.000000 -3.921588 0.000000
-28.946552 92.841595 -72.533112 -22.547617 3.953329 -2.865271 3.209884 1.739103 -2.214638 1.930499 3.122569 -0.735249 0.931975 3.430847 0.479439 0.398751 3.605463 -0.264625 9.577817 12.991204 -1.361755 4.050090 0.770655 -1.594921 15.702694 6.977771 8.875078 -55.764593 -5.837047 -21.708227 -90.866422 11.628757 47.382975 -9.752693 -8.305264 -8.412092 -19.493446 14.146533 -5.022520 77.732746 -10.011924 14.004450 94.275358 13.699662 -45.820511 -1.596929 9.802547 7.686800 9.789664 -25.847156 8.823799 0.000000 30.077415 0.000000 7.298358 -3.261893 -3.713440 0.000000 -4.026401 0.000000 -18.573902 -6.836517 -4.021728 0.000000 21.919178 0.000000 1.152387 -14.072230 5.362040 0.000000 -3.950360 0.000000
-28.772464 92.742761 -72.619574 -24.246325 3.726889 -3.006032 2.932860 1.937003 -1.920342 1.484744 3.082180 -0.698569 0.669644 3.453544 0.228518 0.244385 3.518485 -0.371599 11.239361 13.320331 -1.752644 4.739804 0.542025 -2.059966 15.893702 7.121718 8.960355 -53.350261 -5.693748 -22.514581 -91.551662 11.642660 47.499852 -9.636702 -7.770505 -8.727117 -19.788083 14.563597 -4.767852 78.004452 -9.434386 14.541418 94.722502 13.964600 -45.607507 -1.432596 9.385342 7.672746 11.000498 -25.824103 8.967165 0.000000 30.660764 0.000000 7.696904 -3.656367 -3.842250 0.000000 -4.000924 0.000000 -17.736061 -7.377940 -4.071701 0.000000 22.528839 0.000000 2.078897 -14.131016 5.205119 0.000000 -4.019935 0.000000
-28.623380 92.640442 -72.691718 -25.867331 3.554030 -3.112758 2.492495 2.387735 -1.753728 1.033819 2.841710 -0.694334 0.547725 3.086606 0.116594 0.220649 3.564633 -0.440584 12.760834 13.679565 -2.092428 5.369080 0.468031 -2.495804 15.891198 7.283199 8.942460 -50.963264 -5.308086 -23.396595 -92.370699 11.714318 47.586182 -9.222283 -7.249170 -8.573205 -20.073883 15.218112 -4.547547 78.125130 -8.778372 14.622351 94.824104 14.132091 -45.442414 -1.056430 8.653142 7.604299 12.032939 -25.819198 9.108916 0.000000 31.218449 0.000000 8.199371 -4.023871 -4.013684 0.000000 -3.999598 0.000000 -17.007078 -7.962632 -4.128056 0.000000 23.153200 0.000000 3.039646 -14.218400 5.056327 0.000000 -4.104770 0.000000
-28.466080 92.524512 -72.773999 -27.490855 3.428741 -3.175710 2.042875 2.387882 -1.568134 0.741339 2.957989 -0.733459 0.460832 3.147358 -0.120957 0.279403 3.301888 -0.273708 14.037061 14.035897 -2.391356 5.875455 0.265292 -3.045232 15.995210 7.553242 8.828551 -49.075957 -5.163458 -23.934336 -92.769739 11.707402 47.669864 -8.952935 -6.987074 -8.495974 -20.237623 15.157463 -5.018976 77.800495 -8.648912 15.460715 94.850103 14.339553 -45.221526 -1.023728 7.619741 7.495571 13.079580 -25.877520 9.193161 0.000000 31.797106 0.000000 8.709848 -4.390324 -4.166397 0.000000 -4.005666 0.000000 -16.282464 -8.680361 -4.212291 0.000000 23.888803 0.000000 4.018533 -14.351710 4.936989 0.000000 -4.199777 0.000000
